<svg width="275" height="106" viewBox="0 0 275 106" fill="none" xmlns="http://www.w3.org/2000/svg">
<rect x="129.556" y="17.6667" width="13.4604" height="57.2065" fill="black"/>
<rect x="65.6191" y="17.6667" width="13.4604" height="57.2065" fill="black"/>
<rect y="0.841309" width="11.7778" height="74.032" fill="black"/>
<rect y="31.1272" width="40.3811" height="10.0953" fill="black"/>
<rect x="65.6191" y="42.905" width="37.016" height="10.0953" fill="black"/>
<path d="M65.6191 17.6667L93.6781 17.6667L97.0184 17.6667L100.359 18.508L103.365 19.7699L105.703 21.8731L107.708 23.9763L109.378 26.9207L110.714 30.7065L111.048 34.0716L110.714 37.4367L110.046 40.3811L108.71 42.9049L106.705 45.4287L103.699 47.9526L96.0163 42.9049L97.6865 42.0637L99.0226 40.8017L99.6907 39.1192L100.025 37.016V34.9128L99.6907 32.8097L99.0226 30.7065L97.6865 29.0239L96.0163 28.1827L93.6781 27.762H65.6191V17.6667Z" fill="black"/>
<path d="M0 0.841309L29.0981 0.841309L32.5622 0.841309L36.0263 1.86953L39.1439 3.41186L41.5688 5.98242L43.6472 8.55297L45.3792 12.1518L46.7649 16.7788L47.1113 20.8916L46.7649 25.0045L46.072 28.6033L44.6864 31.688L42.608 34.7726L39.4903 37.8573L31.523 31.688L33.255 30.6597L34.6406 29.1174L35.3334 27.061L35.6799 24.4904V21.9199L35.3334 19.3493L34.6406 16.7788L33.255 14.7223L31.523 13.6941L29.0981 13.18H0V0.841309Z" fill="black"/>
<path d="M0 74.8733L28.3788 74.8733L32.1035 74.8733L35.8815 74.4612L39.1982 72.813L42.0893 70.3407L44.3242 67.0443L46.4348 62.9238L48.244 58.8033L48.7938 54.6827V50.4707L48.244 46.8995L46.9315 42.1381L45.2287 37.7886L42.0893 34.4922L33.8949 39.1621L35.7573 40.3525L37.2472 42.1381L37.9921 44.5188L38.3646 47.4947V50.4707L37.9921 53.4466L37.2472 56.4225L35.7573 58.8033L33.8949 59.9936L31.2876 60.5888H0V74.8733Z" fill="black"/>
<path d="M90.8574 47.9526H102.386L116.096 74.8734H104.255L90.8574 47.9526Z" fill="black"/>
<rect x="159.842" y="17.6667" width="11.7778" height="57.2065" fill="black"/>
<rect x="200.223" y="17.6667" width="11.7778" height="57.2065" fill="black"/>
<path d="M262.711 42.905H274.255V78.2385H262.711V54.1083H255.116L252.382 48.5067L255.116 42.905H262.711Z" fill="black"/>
<path d="M159.842 17.6667H177.944L212.001 74.8733H195.433L159.842 17.6667Z" fill="black"/>
<path d="M270.89 17.6669C264.924 17.6669 257.384 17.6669 251.552 17.6669C243.571 17.6669 239.581 18.9557 235.897 22.8219C231.907 26.2586 230.813 29.074 228.53 32.6703C226.247 36.2666 225.461 44.7045 225.461 48.597C225.461 52.4896 226.636 58.7475 228.919 62.3438C231.202 65.9401 233.507 69.9014 237.725 72.6539C241.944 75.4063 245.413 77.3794 251.552 78.2385C257.384 78.2385 264.924 78.2385 270.89 78.2385L270.276 67.4989C265.921 67.4989 262.909 67.4989 258.198 67.4989C254.007 67.0693 250.519 65.9076 247.439 63.8982C244.359 61.8888 241.917 59.5033 240.25 56.878C238.583 54.2526 237.725 51.4387 237.725 48.597C237.725 45.7554 237.914 41.9318 239.581 39.3064C241.247 36.6811 243.561 32.91 246.641 30.9007C249.72 28.8913 253.505 27.977 258.198 27.977C262.892 27.977 266.534 27.977 270.89 27.977L270.89 17.6669Z" fill="black"/>
<rect y="95.064" width="274.255" height="10.0953" fill="black"/>
</svg>
