<svg width="99" height="136" viewBox="0 0 99 136" fill="none" xmlns="http://www.w3.org/2000/svg">
<path d="M95.875 114.839V133.948" stroke="black" stroke-width="4" stroke-linecap="round"/>
<path d="M3.625 114.839V133.948" stroke="black" stroke-width="4" stroke-linecap="round"/>
<path d="M78.7432 108.909V114.946C78.7432 115.736 78.9769 116.508 79.415 117.165L80.061 118.134L81.8415 121.695C81.972 121.956 82.0735 122.23 82.1443 122.514L83.2363 126.881C83.3156 127.199 83.3557 127.524 83.3557 127.852V133.948" stroke="black" stroke-width="4" stroke-linecap="round"/>
<path d="M20.7568 108.909V114.946C20.7568 115.736 20.5231 116.508 20.085 117.165L19.439 118.134L17.6585 121.695C17.528 121.956 17.4265 122.23 17.3557 122.514L16.2637 126.881C16.1844 127.199 16.1443 127.524 16.1443 127.852V133.948" stroke="black" stroke-width="4" stroke-linecap="round"/>
<path d="M68.2002 89.7998H72.8127H78.601C78.6957 89.7998 78.7902 89.8065 78.8839 89.8199L83.1772 90.4332C83.2959 90.4502 83.413 90.4778 83.5268 90.5158L87.101 91.7072C87.2395 91.7533 87.3724 91.8145 87.4976 91.8896L90.3928 93.6267C90.5331 93.7109 90.6624 93.8119 90.7781 93.9275L93.0656 96.2151C93.1812 96.3307 93.2823 96.4601 93.3664 96.6003L95.2165 99.6838L96.3232 101.897C96.4621 102.175 96.5344 102.481 96.5344 102.792V112.18C96.5344 113.285 95.639 114.18 94.5344 114.18H79.4021" stroke="black" stroke-width="4" stroke-linecap="round"/>
<path d="M31.2998 89.7998H26.6873H20.899C20.8043 89.7998 20.7098 89.8065 20.6161 89.8199L16.3228 90.4332C16.2041 90.4502 16.087 90.4778 15.9732 90.5158L12.399 91.7072C12.2605 91.7533 12.1276 91.8145 12.0024 91.8896L9.10715 93.6267C8.96693 93.7109 8.83756 93.8119 8.72193 93.9275L6.43439 96.2151C6.31876 96.3307 6.21775 96.4601 6.13361 96.6003L4.28348 99.6838L3.17676 101.897C3.0379 102.175 2.96561 102.481 2.96561 102.792V112.18C2.96561 113.285 3.86105 114.18 4.96561 114.18H20.0979" stroke="black" stroke-width="4" stroke-linecap="round"/>
<path d="M30.6406 90.4587L31.6014 92.8607C31.8391 93.4549 32.1239 94.0291 32.4532 94.5779L33.1753 95.7813C33.68 96.6227 34.2861 97.3989 34.9799 98.0927L35.7308 98.8436C36.2896 99.4024 36.9022 99.9046 37.5597 100.343L39.1875 101.428C40.075 102.02 41.0373 102.49 42.0492 102.828L46.4551 104.296L47.3963 104.485C48.9499 104.795 50.5496 104.795 52.1031 104.485L53.0444 104.296L57.8476 102.695C58.5972 102.445 59.3204 102.122 60.0065 101.73L62.3095 100.414C63.1576 99.9294 63.9373 99.3338 64.628 98.6431V98.6431C65.6804 97.5907 66.5081 96.3355 67.0609 94.9537L67.1337 94.7717C67.4046 94.0943 67.613 93.3934 67.756 92.678L68.1999 90.4587" stroke="black" stroke-width="4" stroke-linecap="round"/>
<path d="M60.293 73.9854V86.5051L61.6108 88.4819L63.5876 89.7998L66.2234 90.4587" stroke="black" stroke-width="4" stroke-linecap="round"/>
<path d="M37.8896 73.9854V86.5051L36.5718 88.4819L34.595 89.7998L31.9592 90.4587" stroke="black" stroke-width="4" stroke-linecap="round"/>
<path d="M78.7436 48.9458L80.1454 49.9971C80.9639 50.611 81.691 51.3381 82.3049 52.1566V52.1566C83.0012 53.085 83.5433 54.1196 83.9103 55.2206L84.0151 55.5351C84.4515 56.8445 84.674 58.2156 84.674 59.5957V62.6565C84.674 64.0462 84.4089 65.4232 83.8927 66.7135V66.7135C83.5366 67.6039 83.0647 68.4435 82.4893 69.2107L82.0703 69.7694C81.6103 70.3828 81.1073 70.9628 80.5651 71.5049L79.9657 72.1043C79.153 72.917 78.2619 73.6475 77.3056 74.2851V74.2851C75.6409 75.3948 73.7979 76.2102 71.857 76.6954L71.7086 76.7325C70.254 77.0961 68.7604 77.28 67.2611 77.28H61.6113" stroke="black" stroke-width="4" stroke-linecap="round"/>
<path d="M21.4158 35.7673L21.32 35.2884C20.9455 33.4158 20.7568 31.5108 20.7568 29.601V27.8062C20.7568 26.9646 20.8166 26.124 20.9356 25.2909V25.2909C21.2528 23.0701 21.9873 20.9294 23.1003 18.9817L24.0515 17.3171L26.1077 14.5755C27.3689 12.894 28.8103 11.3555 30.4062 9.9876V9.9876C31.8767 8.7271 33.4707 7.61812 35.1638 6.67749L36.7105 5.81821C37.9339 5.13858 39.206 4.55065 40.5163 4.05927V4.05927C42.71 3.23665 44.9973 2.68969 47.3258 2.43097L49.75 2.16162" stroke="black" stroke-width="4" stroke-linecap="round"/>
<path d="M77.425 35.7673L77.5208 35.2884C77.8953 33.4158 78.084 31.5108 78.084 29.601V27.8062C78.084 26.9646 78.0242 26.124 77.9052 25.2909V25.2909C77.588 23.0701 76.8535 20.9294 75.7405 18.9817L74.7893 17.3171L72.7331 14.5755C71.472 12.894 70.0306 11.3555 68.4347 9.9876V9.9876C66.9641 8.7271 65.3701 7.61812 63.677 6.67749L62.1303 5.81821C60.9069 5.13858 59.6349 4.55065 58.3245 4.05927V4.05927C56.1308 3.23665 53.8435 2.68969 51.515 2.43097L49.0909 2.16162" stroke="black" stroke-width="4" stroke-linecap="round"/>
<path d="M25.3699 37.085H23.7929C22.6582 37.085 21.5339 37.3015 20.4803 37.7229L19.6406 38.0588C19.0731 38.2858 18.5577 38.6257 18.1255 39.0578V39.0578C17.2792 39.9042 16.8037 41.052 16.8037 42.2489V43.1229C16.8037 44.3198 17.2792 45.4676 18.1255 46.314V46.314C18.5577 46.7461 19.0731 47.086 19.6406 47.313L20.4803 47.6489C21.5339 48.0703 22.6582 48.2869 23.7929 48.2869H25.3699" stroke="black" stroke-width="4" stroke-linecap="round"/>
<path d="M74.1301 37.085H75.7071C76.8418 37.085 77.9661 37.3015 79.0197 37.7229L79.8594 38.0588C80.4269 38.2858 80.9423 38.6257 81.3745 39.0578V39.0578C82.2208 39.9042 82.6963 41.052 82.6963 42.2489V43.1229C82.6963 44.3198 82.2208 45.4676 81.3745 46.314V46.314C80.9423 46.7461 80.4269 47.086 79.8594 47.313L79.0197 47.6489C77.9661 48.0703 76.8418 48.2869 75.7071 48.2869H74.1301" stroke="black" stroke-width="4" stroke-linecap="round"/>
<path d="M68.2004 19.9529L66.2236 23.2476" stroke="black" stroke-width="4" stroke-linecap="round"/>
<path d="M30.6414 19.9529L32.6182 23.2476" stroke="black" stroke-width="4" stroke-linecap="round"/>
<path d="M57.6577 14.6814L57.1001 15.5178C55.723 17.5834 54.6748 19.8502 53.9927 22.2373L53.7041 23.2475" stroke="black" stroke-width="4" stroke-linecap="round"/>
<path d="M41.1841 14.6814L41.7417 15.5178C43.1188 17.5834 44.167 19.8502 44.849 22.2373L45.1377 23.2475" stroke="black" stroke-width="4" stroke-linecap="round"/>
<path d="M29.9819 28.5188L29.9513 28.58C28.2251 32.0324 27.0473 35.7327 26.4604 39.5478V39.5478C26.1728 41.4175 26.0283 43.3064 26.0283 45.1981V51.5815L26.7922 57.3103C27.1567 60.0442 28.1416 62.6586 29.6715 64.9535V64.9535C30.75 66.5712 32.0822 68.0045 33.6169 69.1981L37.2302 72.0085L45.2627 76.9516C45.6178 77.1701 45.991 77.3578 46.3782 77.5127V77.5127C48.1197 78.2093 50.0624 78.2093 51.8039 77.5127L52.3857 77.28L59.8497 73.548C61.894 72.5258 63.7993 71.2467 65.5193 69.7417L66.2465 69.1053C67.5433 67.9707 68.6843 66.6697 69.6401 65.236V65.236C71.2939 62.7552 72.3586 59.9291 72.7527 56.9737L73.4716 51.5815V45.1981C73.4716 43.3064 73.3272 41.4175 73.0395 39.5478V39.5478C72.4526 35.7327 71.2748 32.0324 69.5486 28.58L69.518 28.5188" stroke="black" stroke-width="4" stroke-linecap="round"/>
</svg>
