<svg width="114" height="113" viewBox="0 0 114 113" fill="none" xmlns="http://www.w3.org/2000/svg">
<path d="M71.0908 81.1006H77.0212" stroke="black" stroke-width="4" stroke-linecap="round"/>
<path d="M71.0908 100.209H77.0212" stroke="black" stroke-width="4" stroke-linecap="round"/>
<path d="M71.0908 70.5576H78.998" stroke="black" stroke-width="4" stroke-linecap="round"/>
<path d="M71.0908 89.6667H78.998" stroke="black" stroke-width="4" stroke-linecap="round"/>
<path d="M95.4714 69.2397V98.5275C95.4714 100.184 94.1283 101.528 92.4714 101.528H86.9053" stroke="black" stroke-width="4" stroke-linecap="round"/>
<path d="M64.501 61.4948V102.709C64.501 104.484 65.206 106.186 66.461 107.441C66.4722 107.452 66.4841 107.463 66.4968 107.472L69.0414 109.381C69.0894 109.417 69.1405 109.448 69.1942 109.475L71.5381 110.647C71.677 110.716 71.8301 110.753 71.9853 110.753H99.1884C99.3437 110.753 99.4968 110.716 99.6357 110.647L101.915 109.507C102.011 109.459 102.099 109.396 102.175 109.32L103.967 107.528C104.014 107.481 104.055 107.43 104.092 107.376L105.187 105.733C105.296 105.569 105.355 105.376 105.355 105.178V71.2165V68.2246C105.355 68.0272 105.413 67.8342 105.523 67.6699L106.618 66.0274C106.654 65.9727 106.696 65.9216 106.743 65.875L108.65 63.9683L111.282 61.3358C111.284 61.3336 111.286 61.3311 111.287 61.3284L111.595 60.7132C111.825 60.2538 111.944 59.7472 111.944 59.2336C111.944 58.8899 111.808 58.5602 111.565 58.3172L110.63 57.3826C110.628 57.3801 110.625 57.3779 110.622 57.376L110.557 57.3327C109.313 56.5035 107.852 56.061 106.357 56.061H68.7574C68.5599 56.061 68.3669 56.1195 68.2027 56.229L66.6442 57.268C66.5343 57.3412 66.4401 57.4355 66.3668 57.5453L65.2342 59.2443C65.1849 59.3182 65.1457 59.3984 65.1176 59.4828L64.5523 61.1786C64.5183 61.2805 64.501 61.3873 64.501 61.4948Z" stroke="black" stroke-width="4"/>
<path d="M39.4619 40.2465L46.8163 36.5693C47.1551 36.3999 47.3691 36.0537 47.3691 35.6749V3.68725C47.3691 3.13497 47.8168 2.68726 48.3691 2.68726H62.8425C63.3948 2.68726 63.8425 3.13497 63.8425 3.68726V35.4731C63.8425 35.9498 64.179 36.3602 64.6464 36.4537L67.1372 36.9519L69.4451 37.6113C70.9782 38.0493 72.4674 38.6286 73.8935 39.3416V39.3416C75.0982 39.944 76.2539 40.6398 77.3499 41.4226L78.4201 42.1871C79.6818 43.0883 80.8669 44.0922 81.9632 45.1885V45.1885C83.0596 46.2849 84.0634 47.4699 84.9646 48.7316L86.9052 51.4484" stroke="black" stroke-width="4" stroke-linecap="round"/>
<path d="M31.5544 69.2397L14.2785 97.8344C13.4732 99.1673 14.433 100.869 15.9903 100.869H26.9419" stroke="black" stroke-width="4" stroke-linecap="round"/>
<path d="M32.8725 29.0447H27.9421C27.3898 29.0447 26.9421 29.4924 26.9421 30.0447V59.0747C26.9421 59.2584 26.8915 59.4387 26.7957 59.5955L3.66724 97.5006C3.37034 97.9872 3.12946 98.5058 2.94921 99.0466V99.0466C2.69243 99.8169 2.56152 100.624 2.56152 101.436V101.717C2.56152 102.466 2.65346 103.213 2.83528 103.94L2.95303 104.411C3.13 105.119 3.42735 105.791 3.8321 106.399V106.399C4.2983 107.098 4.89837 107.698 5.59767 108.164L5.83834 108.325C6.28832 108.625 6.76823 108.877 7.27036 109.078L7.67133 109.238C9.084 109.803 10.5915 110.094 12.113 110.094H33.5315" stroke="black" stroke-width="4" stroke-linecap="round"/>
<path d="M32.8726 29.0447H37.803C38.3553 29.0447 38.803 29.4924 38.803 30.0447V59.0747C38.803 59.2584 38.8536 59.4387 38.9494 59.5955L62.0779 97.5006C62.3748 97.9872 62.6157 98.5058 62.7959 99.0466V99.0466C63.0527 99.8169 63.1836 100.624 63.1836 101.436V101.717C63.1836 102.466 63.0917 103.213 62.9098 103.94L62.7921 104.411C62.6151 105.119 62.3178 105.791 61.913 106.399V106.399C61.4468 107.098 60.8468 107.698 60.1474 108.164L59.9068 108.325C59.4568 108.625 58.9769 108.877 58.4748 109.078L58.0738 109.238C56.6611 109.803 55.1536 110.094 53.6321 110.094H32.2137" stroke="black" stroke-width="4" stroke-linecap="round"/>
<circle cx="44.0742" cy="89.6667" r="2.63574" fill="black"/>
<circle cx="50.6631" cy="98.8916" r="2.63574" fill="black"/>
<circle cx="54.6172" cy="65.9451" r="2.63574" fill="black"/>
<circle cx="50.6631" cy="56.72" r="2.63574" fill="black"/>
<circle cx="48.0273" cy="47.4949" r="2.63574" fill="black"/>
<circle cx="15.0811" cy="56.72" r="2.63574" fill="black"/>
<circle cx="7.17382" cy="44.8591" r="2.63574" fill="black"/>
<circle cx="9.15063" cy="27.0679" r="4.5" stroke="black" stroke-width="5.49656"/>
<circle cx="19.6936" cy="9.93554" r="4.5" stroke="black" stroke-width="5.49656"/>
<circle cx="93.4944" cy="24.4321" r="4.5" stroke="black" stroke-width="5.49656"/>
<circle cx="101.402" cy="41.5644" r="4.5" stroke="black" stroke-width="5.49656"/>
</svg>
