<svg width="103" height="96" viewBox="0 0 103 96" fill="none" xmlns="http://www.w3.org/2000/svg">
<path d="M19.4389 43.7431L3.04175 27.9766C2.63811 27.5885 2.6318 26.9446 3.02775 26.5486L15.8609 13.7155C19.0935 10.4829 22.9281 7.91486 27.1481 6.15654L35.7096 2.58923C36.1948 2.38708 36.7536 2.595 36.9887 3.06509L38.548 6.18383L40.42 8.99182C40.928 9.75371 41.5099 10.4636 42.1574 11.111L42.7321 11.6858C43.8806 12.8342 45.2806 13.6995 46.8214 14.2131V14.2131C47.8882 14.5687 49.0053 14.75 50.1298 14.75H51.7267" stroke="black" stroke-width="4"/>
<path d="M84.6731 43.0842L100.41 27.9766C100.814 27.5885 100.821 26.9442 100.425 26.5481L87.5922 13.7155C84.3596 10.4829 80.525 7.91486 76.305 6.15654L67.7435 2.58923C67.2583 2.38708 66.6995 2.595 66.4644 3.06509L64.9051 6.18383L63.0331 8.99182C62.5252 9.75371 61.9432 10.4636 61.2958 11.111L60.721 11.6858C59.5726 12.8342 58.1725 13.6995 56.6317 14.2131V14.2131C55.5649 14.5687 54.4478 14.75 53.3233 14.75H51.7264" stroke="black" stroke-width="4"/>
<path d="M19.4395 29.2466V92.1632C19.4395 92.7155 19.8872 93.1632 20.4395 93.1632H83.674C84.2263 93.1632 84.674 92.7155 84.674 92.1632V29.2466" stroke="black" stroke-width="4" stroke-linecap="round"/>
</svg>
