<svg width="598" height="579" viewBox="0 0 598 579" fill="none" xmlns="http://www.w3.org/2000/svg">
<path d="M55 290H9.5C9.22386 290 9 290.224 9 290.5V335" stroke="#7FA48D" stroke-width="18" stroke-linecap="round"/>
<path d="M543 290H587.5C587.776 290 588 290.224 588 290.5V336" stroke="#7FA48D" stroke-width="18" stroke-linecap="round"/>
<path d="M588.203 289.5C428.317 449.386 169.09 449.386 9.20312 289.5" stroke="#7FA48D" stroke-width="18" stroke-linecap="round"/>
<path d="M593.203 289.5C593.203 286.739 590.965 284.5 588.203 284.5L543.203 284.5C540.442 284.5 538.203 286.739 538.203 289.5C538.203 292.261 540.442 294.5 543.203 294.5H583.203V334.5C583.203 337.261 585.442 339.5 588.203 339.5C590.965 339.5 593.203 337.261 593.203 334.5L593.203 289.5ZM9.20312 284.5C6.4417 284.5 4.20313 286.739 4.20313 289.5V334.5C4.20313 337.261 6.4417 339.5 9.20312 339.5C11.9645 339.5 14.2031 337.261 14.2031 334.5V294.5H54.2031C56.9645 294.5 59.2031 292.261 59.2031 289.5C59.2031 286.739 56.9645 284.5 54.2031 284.5H9.20312ZM584.668 285.964C426.734 443.898 170.672 443.898 12.7387 285.964L5.66759 293.036C167.507 454.875 429.9 454.875 591.739 293.036L584.668 285.964Z" fill="white"/>
<rect x="274.814" y="465.654" width="62" height="14" fill="white"/>
<path d="M256.815 480.838C250.009 485.501 246.605 493.218 246.605 503.988C246.605 520.144 266.403 547.759 284.256 547.759C302.108 547.759 312.461 547.759 329.935 547.759C347.409 547.759 358.022 532.437 358.022 520.144C358.022 502.833 358.022 485.522 358.022 468.212C358.022 461.619 352.678 456.274 346.085 456.274H346.048C339.476 456.274 334.147 461.603 334.147 468.176" fill="white"/>
<path d="M256.815 480.838C250.009 485.501 246.605 493.218 246.605 503.988C246.605 520.144 266.403 547.759 284.256 547.759C302.108 547.759 312.461 547.759 329.935 547.759C347.409 547.759 358.022 532.437 358.022 520.144C358.022 502.833 358.022 485.522 358.022 468.212C358.022 461.619 352.678 456.274 346.085 456.274H346.048C339.476 456.274 334.147 461.603 334.147 468.176" stroke="#7FA48D" stroke-width="6" stroke-linecap="round"/>
<path d="M262.447 489.842V408.511C262.447 401.923 267.787 396.583 274.375 396.583C274.386 396.583 274.397 396.583 274.408 396.583C281.019 396.601 286.369 401.966 286.369 408.577V470.531" fill="white"/>
<path d="M262.447 489.842V408.511C262.447 401.923 267.787 396.583 274.375 396.583C274.386 396.583 274.397 396.583 274.408 396.583C281.019 396.601 286.369 401.966 286.369 408.577V470.531" stroke="#7FA48D" stroke-width="6" stroke-linecap="round"/>
<path d="M286.367 468.208V452.32C286.367 445.694 291.739 440.321 298.366 440.321C304.993 440.321 310.365 445.694 310.365 452.32V468.208" fill="white"/>
<path d="M286.367 468.208V452.32C286.367 445.694 291.739 440.321 298.366 440.321C304.993 440.321 310.365 445.694 310.365 452.32V468.208" stroke="#7FA48D" stroke-width="6" stroke-linecap="round" stroke-linejoin="round"/>
<path d="M310.271 467.044V456.251C310.271 449.658 315.616 444.313 322.209 444.313C328.802 444.313 334.146 449.658 334.146 456.251V468.188" fill="white"/>
<path d="M310.271 467.044V456.251C310.271 449.658 315.616 444.313 322.209 444.313C328.802 444.313 334.146 449.658 334.146 456.251V468.188" stroke="#7FA48D" stroke-width="6" stroke-linecap="round" stroke-linejoin="round"/>
<mask id="path-14-outside-1_1033_981" maskUnits="userSpaceOnUse" x="244" y="290" width="115" height="36" fill="black">
<rect fill="white" x="244" y="290" width="115" height="36"/>
<path d="M251.4 299.8V307.2H261.76V311.6H251.4V323H246.12V295.16H264.4V299.8H251.4ZM274.544 292.84H279.824V323H274.544V292.84ZM293.995 299C293.089 299 292.315 298.693 291.675 298.08C291.035 297.467 290.715 296.667 290.715 295.68C290.715 294.693 291.035 293.893 291.675 293.28C292.315 292.667 293.089 292.36 293.995 292.36C294.902 292.36 295.675 292.667 296.315 293.28C296.955 293.893 297.275 294.693 297.275 295.68C297.275 296.667 296.955 297.467 296.315 298.08C295.675 298.693 294.902 299 293.995 299ZM296.635 302.12V323H291.355V302.16L296.635 302.12ZM318.326 323.48C316.14 323.48 314.22 323.04 312.566 322.16C310.94 321.253 309.686 319.987 308.806 318.36C307.926 316.733 307.486 314.827 307.486 312.64C307.486 310.453 307.94 308.533 308.846 306.88C309.753 305.2 311.02 303.907 312.646 303C314.3 302.093 316.193 301.64 318.326 301.64C320.726 301.64 322.753 302.133 324.406 303.12V307.76H324.246C323.366 307.227 322.406 306.827 321.366 306.56C320.353 306.293 319.406 306.16 318.526 306.16C316.686 306.16 315.3 306.707 314.366 307.8C313.433 308.893 312.966 310.507 312.966 312.64C312.966 316.853 314.793 318.96 318.446 318.96C319.406 318.96 320.38 318.813 321.366 318.52C322.38 318.2 323.34 317.76 324.246 317.2H324.406V321.92C322.7 322.96 320.673 323.48 318.326 323.48ZM343.608 314.24L341.208 316.88V323H335.928V292.84H341.208V310.52L348.488 302.12H354.488L346.888 310.56L354.968 323H348.928L343.608 314.24Z"/>
</mask>
<path d="M251.4 299.8V307.2H261.76V311.6H251.4V323H246.12V295.16H264.4V299.8H251.4ZM274.544 292.84H279.824V323H274.544V292.84ZM293.995 299C293.089 299 292.315 298.693 291.675 298.08C291.035 297.467 290.715 296.667 290.715 295.68C290.715 294.693 291.035 293.893 291.675 293.28C292.315 292.667 293.089 292.36 293.995 292.36C294.902 292.36 295.675 292.667 296.315 293.28C296.955 293.893 297.275 294.693 297.275 295.68C297.275 296.667 296.955 297.467 296.315 298.08C295.675 298.693 294.902 299 293.995 299ZM296.635 302.12V323H291.355V302.16L296.635 302.12ZM318.326 323.48C316.14 323.48 314.22 323.04 312.566 322.16C310.94 321.253 309.686 319.987 308.806 318.36C307.926 316.733 307.486 314.827 307.486 312.64C307.486 310.453 307.94 308.533 308.846 306.88C309.753 305.2 311.02 303.907 312.646 303C314.3 302.093 316.193 301.64 318.326 301.64C320.726 301.64 322.753 302.133 324.406 303.12V307.76H324.246C323.366 307.227 322.406 306.827 321.366 306.56C320.353 306.293 319.406 306.16 318.526 306.16C316.686 306.16 315.3 306.707 314.366 307.8C313.433 308.893 312.966 310.507 312.966 312.64C312.966 316.853 314.793 318.96 318.446 318.96C319.406 318.96 320.38 318.813 321.366 318.52C322.38 318.2 323.34 317.76 324.246 317.2H324.406V321.92C322.7 322.96 320.673 323.48 318.326 323.48ZM343.608 314.24L341.208 316.88V323H335.928V292.84H341.208V310.52L348.488 302.12H354.488L346.888 310.56L354.968 323H348.928L343.608 314.24Z" fill="white"/>
<path d="M251.4 299.8V297.8H249.4V299.8H251.4ZM251.4 307.2H249.4V309.2H251.4V307.2ZM261.76 307.2H263.76V305.2H261.76V307.2ZM261.76 311.6V313.6H263.76V311.6H261.76ZM251.4 311.6V309.6H249.4V311.6H251.4ZM251.4 323V325H253.4V323H251.4ZM246.12 323H244.12V325H246.12V323ZM246.12 295.16V293.16H244.12V295.16H246.12ZM264.4 295.16H266.4V293.16H264.4V295.16ZM264.4 299.8V301.8H266.4V299.8H264.4ZM249.4 299.8V307.2H253.4V299.8H249.4ZM251.4 309.2H261.76V305.2H251.4V309.2ZM259.76 307.2V311.6H263.76V307.2H259.76ZM261.76 309.6H251.4V313.6H261.76V309.6ZM249.4 311.6V323H253.4V311.6H249.4ZM251.4 321H246.12V325H251.4V321ZM248.12 323V295.16H244.12V323H248.12ZM246.12 297.16H264.4V293.16H246.12V297.16ZM262.4 295.16V299.8H266.4V295.16H262.4ZM264.4 297.8H251.4V301.8H264.4V297.8ZM274.544 292.84V290.84H272.544V292.84H274.544ZM279.824 292.84H281.824V290.84H279.824V292.84ZM279.824 323V325H281.824V323H279.824ZM274.544 323H272.544V325H274.544V323ZM274.544 294.84H279.824V290.84H274.544V294.84ZM277.824 292.84V323H281.824V292.84H277.824ZM279.824 321H274.544V325H279.824V321ZM276.544 323V292.84H272.544V323H276.544ZM291.675 298.08L290.292 299.524L291.675 298.08ZM291.675 293.28L290.292 291.836L291.675 293.28ZM296.635 302.12H298.635V300.105L296.62 300.12L296.635 302.12ZM296.635 323V325H298.635V323H296.635ZM291.355 323H289.355V325H291.355V323ZM291.355 302.16L291.34 300.16L289.355 300.175V302.16H291.355ZM293.995 297C293.591 297 293.317 296.884 293.059 296.636L290.292 299.524C291.313 300.503 292.586 301 293.995 301V297ZM293.059 296.636C292.859 296.444 292.715 296.189 292.715 295.68H288.715C288.715 297.144 289.211 298.489 290.292 299.524L293.059 296.636ZM292.715 295.68C292.715 295.171 292.859 294.916 293.059 294.724L290.292 291.836C289.211 292.871 288.715 294.216 288.715 295.68H292.715ZM293.059 294.724C293.317 294.476 293.591 294.36 293.995 294.36V290.36C292.586 290.36 291.313 290.857 290.292 291.836L293.059 294.724ZM293.995 294.36C294.399 294.36 294.673 294.476 294.932 294.724L297.699 291.836C296.677 290.857 295.405 290.36 293.995 290.36V294.36ZM294.932 294.724C295.131 294.916 295.275 295.171 295.275 295.68H299.275C299.275 294.216 298.779 292.871 297.699 291.836L294.932 294.724ZM295.275 295.68C295.275 296.189 295.131 296.444 294.932 296.636L297.699 299.524C298.779 298.489 299.275 297.144 299.275 295.68H295.275ZM294.932 296.636C294.673 296.884 294.399 297 293.995 297V301C295.405 301 296.677 300.503 297.699 299.524L294.932 296.636ZM294.635 302.12V323H298.635V302.12H294.635ZM296.635 321H291.355V325H296.635V321ZM293.355 323V302.16H289.355V323H293.355ZM291.37 304.16L296.65 304.12L296.62 300.12L291.34 300.16L291.37 304.16ZM312.566 322.16L311.593 323.907L311.609 323.916L311.627 323.925L312.566 322.16ZM308.806 318.36L310.565 317.408L308.806 318.36ZM308.846 306.88L310.6 307.842L310.606 307.83L308.846 306.88ZM312.646 303L311.685 301.246L311.673 301.253L312.646 303ZM324.406 303.12H326.406V301.984L325.431 301.403L324.406 303.12ZM324.406 307.76V309.76H326.406V307.76H324.406ZM324.246 307.76L323.21 309.47L323.687 309.76H324.246V307.76ZM321.366 306.56L320.857 308.494L320.869 308.497L321.366 306.56ZM314.366 307.8L315.887 309.099L314.366 307.8ZM321.366 318.52L321.936 320.437L321.952 320.432L321.969 320.427L321.366 318.52ZM324.246 317.2V315.2H323.678L323.195 315.498L324.246 317.2ZM324.406 317.2H326.406V315.2H324.406V317.2ZM324.406 321.92L325.447 323.628L326.406 323.043V321.92H324.406ZM318.326 321.48C316.412 321.48 314.825 321.097 313.506 320.395L311.627 323.925C313.614 324.983 315.867 325.48 318.326 325.48V321.48ZM313.54 320.413C312.243 319.69 311.263 318.698 310.565 317.408L307.047 319.312C308.109 321.275 309.636 322.817 311.593 323.907L313.54 320.413ZM310.565 317.408C309.87 316.123 309.486 314.555 309.486 312.64H305.486C305.486 315.098 305.983 317.344 307.047 319.312L310.565 317.408ZM309.486 312.64C309.486 310.735 309.879 309.156 310.6 307.842L307.093 305.918C306 307.91 305.486 310.171 305.486 312.64H309.486ZM310.606 307.83C311.337 306.476 312.335 305.463 313.62 304.747L311.673 301.253C309.704 302.35 308.169 303.924 307.086 305.93L310.606 307.83ZM313.608 304.754C314.93 304.029 316.484 303.64 318.326 303.64V299.64C315.902 299.64 313.67 300.158 311.685 301.246L313.608 304.754ZM318.326 303.64C320.454 303.64 322.106 304.076 323.381 304.837L325.431 301.403C323.4 300.19 320.999 299.64 318.326 299.64V303.64ZM322.406 303.12V307.76H326.406V303.12H322.406ZM324.406 305.76H324.246V309.76H324.406V305.76ZM325.283 306.05C324.228 305.41 323.085 304.936 321.863 304.623L320.869 308.497C321.728 308.717 322.505 309.043 323.21 309.47L325.283 306.05ZM321.875 304.626C320.726 304.324 319.607 304.16 318.526 304.16V308.16C319.205 308.16 319.979 308.263 320.857 308.494L321.875 304.626ZM318.526 304.16C316.277 304.16 314.26 304.844 312.845 306.501L315.887 309.099C316.34 308.569 317.095 308.16 318.526 308.16V304.16ZM312.845 306.501C311.483 308.097 310.966 310.254 310.966 312.64H314.966C314.966 310.759 315.383 309.69 315.887 309.099L312.845 306.501ZM310.966 312.64C310.966 314.991 311.47 317.127 312.825 318.69C314.228 320.308 316.231 320.96 318.446 320.96V316.96C317.008 316.96 316.271 316.559 315.847 316.07C315.376 315.526 314.966 314.503 314.966 312.64H310.966ZM318.446 320.96C319.613 320.96 320.778 320.781 321.936 320.437L320.796 316.603C319.981 316.845 319.2 316.96 318.446 316.96V320.96ZM321.969 320.427C323.14 320.057 324.25 319.548 325.297 318.902L323.195 315.498C322.429 315.972 321.619 316.343 320.764 316.613L321.969 320.427ZM324.246 319.2H324.406V315.2H324.246V319.2ZM322.406 317.2V321.92H326.406V317.2H322.406ZM323.366 320.212C322.023 321.03 320.371 321.48 318.326 321.48V325.48C320.975 325.48 323.376 324.89 325.447 323.628L323.366 320.212ZM343.608 314.24L345.317 313.202L343.928 310.914L342.128 312.895L343.608 314.24ZM341.208 316.88L339.728 315.535L339.208 316.107V316.88H341.208ZM341.208 323V325H343.208V323H341.208ZM335.928 323H333.928V325H335.928V323ZM335.928 292.84V290.84H333.928V292.84H335.928ZM341.208 292.84H343.208V290.84H341.208V292.84ZM341.208 310.52H339.208V315.881L342.719 311.83L341.208 310.52ZM348.488 302.12V300.12H347.575L346.976 300.81L348.488 302.12ZM354.488 302.12L355.974 303.458L358.98 300.12H354.488V302.12ZM346.888 310.56L345.402 309.222L344.375 310.362L345.211 311.649L346.888 310.56ZM354.968 323V325H358.652L356.645 321.911L354.968 323ZM348.928 323L347.218 324.038L347.802 325H348.928V323ZM342.128 312.895L339.728 315.535L342.688 318.225L345.088 315.585L342.128 312.895ZM339.208 316.88V323H343.208V316.88H339.208ZM341.208 321H335.928V325H341.208V321ZM337.928 323V292.84H333.928V323H337.928ZM335.928 294.84H341.208V290.84H335.928V294.84ZM339.208 292.84V310.52H343.208V292.84H339.208ZM342.719 311.83L349.999 303.43L346.976 300.81L339.696 309.21L342.719 311.83ZM348.488 304.12H354.488V300.12H348.488V304.12ZM353.002 300.782L345.402 309.222L348.374 311.898L355.974 303.458L353.002 300.782ZM345.211 311.649L353.291 324.089L356.645 321.911L348.565 309.471L345.211 311.649ZM354.968 321H348.928V325H354.968V321ZM350.637 321.962L345.317 313.202L341.898 315.278L347.218 324.038L350.637 321.962Z" fill="#7FA48D" mask="url(#path-14-outside-1_1033_981)"/>
</svg>
